<svg width="4248" height="1824" xmlns="http://www.w3.org/2000/svg" xmlns:xlink="http://www.w3.org/1999/xlink" xml:space="preserve" overflow="hidden"><defs><clipPath id="clip0"><rect x="76" y="578" width="4248" height="1824"/></clipPath><clipPath id="clip1"><rect x="2508" y="316" width="1787" height="848"/></clipPath><clipPath id="clip2"><rect x="2508" y="454" width="226" height="848"/></clipPath><clipPath id="clip3"><rect x="2733" y="454" width="1562" height="848"/></clipPath><clipPath id="clip4"><rect x="2508" y="590" width="226" height="848"/></clipPath><clipPath id="clip5"><rect x="2733" y="227" width="1562" height="1695"/></clipPath><clipPath id="clip6"><rect x="2733" y="227" width="1562" height="1695"/></clipPath><clipPath id="clip7"><rect x="2508" y="832" width="226" height="848"/></clipPath><clipPath id="clip8"><rect x="2733" y="832" width="1562" height="848"/></clipPath><clipPath id="clip9"><rect x="2508" y="963" width="226" height="848"/></clipPath><clipPath id="clip10"><rect x="2733" y="600" width="1562" height="1695"/></clipPath><clipPath id="clip11"><rect x="2733" y="600" width="1562" height="1695"/></clipPath><clipPath id="clip12"><rect x="2508" y="1205" width="226" height="848"/></clipPath><clipPath id="clip13"><rect x="2733" y="1205" width="1562" height="848"/></clipPath><clipPath id="clip14"><rect x="2508" y="1341" width="226" height="848"/></clipPath><clipPath id="clip15"><rect x="2733" y="1341" width="1562" height="848"/></clipPath><clipPath id="clip16"><rect x="2508" y="1477" width="226" height="848"/></clipPath><clipPath id="clip17"><rect x="2733" y="1114" width="1562" height="1695"/></clipPath><clipPath id="clip18"><rect x="2733" y="1114" width="1562" height="1695"/></clipPath><clipPath id="clip19"><rect x="2508" y="1719" width="226" height="848"/></clipPath><clipPath id="clip20"><rect x="2733" y="1719" width="1562" height="848"/></clipPath><clipPath id="clip21"><rect x="96" y="610" width="2340" height="1761"/></clipPath><clipPath id="clip22"><rect x="96" y="610" width="2340" height="1761"/></clipPath><clipPath id="clip23"><rect x="96" y="610" width="2340" height="1761"/></clipPath><clipPath id="clip24"><rect x="96" y="610" width="2340" height="1761"/></clipPath><radialGradient cx="3.6382e+06" cy="3.11312e+06" r="4.78832e+06" gradientUnits="userSpaceOnUse" spreadMethod="pad" id="fill25" gradientTransform="matrix(0.000280042 0 0 0.000280042 1162.02 30.6509)"><stop offset="0" stop-color="#B196D2"/><stop offset="0.57" stop-color="#CFC0E2"/><stop offset="1" stop-color="#E7E1F0"/></radialGradient></defs><g clip-path="url(#clip0)" transform="translate(-76 -578)"><rect x="76" y="578" width="4248" height="1824" fill="#FFFFFF"/><g clip-path="url(#clip1)"><text font-family="Calibri,Calibri_MSFontService,sans-serif" font-weight="700" font-size="101" transform="matrix(1 0 0 1 2541.36 774)">State Variables</text></g><g clip-path="url(#clip2)"><text font-family="Calibri,Calibri_MSFontService,sans-serif" font-weight="400" font-size="101" transform="matrix(1 0 0 1 2533.11 912)">R</text></g><g clip-path="url(#clip3)"><text font-family="Calibri,Calibri_MSFontService,sans-serif" font-weight="400" font-size="101" transform="matrix(1 0 0 1 2758.41 912)">Ribosomal proteins. </text></g><g clip-path="url(#clip4)"><text font-family="Calibri,Calibri_MSFontService,sans-serif" font-weight="400" font-size="101" transform="matrix(1 0 0 1 2533.11 1047)">M’</text></g><g clip-path="url(#clip5)"><text font-family="Calibri,Calibri_MSFontService,sans-serif" font-weight="400" font-size="101" transform="matrix(1 0 0 1 2758.41 1047)">Proteins involved in metabolizing the </text></g><g clip-path="url(#clip6)"><text font-family="Calibri,Calibri_MSFontService,sans-serif" font-weight="400" font-size="101" transform="matrix(1 0 0 1 2758.41 1168)">internal substrate.</text></g><g clip-path="url(#clip7)"><text font-family="Calibri,Calibri_MSFontService,sans-serif" font-weight="400" font-size="101" transform="matrix(1 0 0 1 2533.11 1289)">Rel</text></g><g clip-path="url(#clip8)"><text font-family="Calibri,Calibri_MSFontService,sans-serif" font-weight="400" font-size="101" transform="matrix(1 0 0 1 2758.41 1289)">RelA</text></g><g clip-path="url(#clip9)"><text font-family="Calibri,Calibri_MSFontService,sans-serif" font-weight="400" font-size="101" transform="matrix(1 0 0 1 2533.11 1420)">U</text></g><g clip-path="url(#clip10)"><text font-family="Calibri,Calibri_MSFontService,sans-serif" font-weight="400" font-size="101" transform="matrix(1 0 0 1 2758.41 1420)">Proteins not directly affecting </text></g><g clip-path="url(#clip11)"><text font-family="Calibri,Calibri_MSFontService,sans-serif" font-weight="400" font-size="101" transform="matrix(1 0 0 1 2758.41 1541)">growth.</text></g><g clip-path="url(#clip12)"><text font-family="Calibri,Calibri_MSFontService,sans-serif" font-weight="400" font-size="101" transform="matrix(1 0 0 1 2533.11 1662)">H</text></g><g clip-path="url(#clip13)"><text font-family="Calibri,Calibri_MSFontService,sans-serif" font-weight="400" font-size="101" transform="matrix(1 0 0 1 2758.41 1662)">Heterologous proteins.</text></g><g clip-path="url(#clip14)"><text font-family="Calibri,Calibri_MSFontService,sans-serif" font-weight="400" font-size="101" transform="matrix(1 0 0 1 2533.11 1798)">s</text></g><g clip-path="url(#clip15)"><text font-family="Calibri,Calibri_MSFontService,sans-serif" font-weight="400" font-size="101" transform="matrix(1 0 0 1 2758.41 1798)">External substrate.</text></g><g clip-path="url(#clip16)"><text font-family="Calibri,Calibri_MSFontService,sans-serif" font-weight="400" font-size="101" transform="matrix(1 0 0 1 2533.11 1934)">p</text></g><g clip-path="url(#clip17)"><text font-family="Calibri,Calibri_MSFontService,sans-serif" font-weight="400" font-size="101" transform="matrix(1 0 0 1 2758.41 1934)">Translational precursors such as </text></g><g clip-path="url(#clip18)"><text font-family="Calibri,Calibri_MSFontService,sans-serif" font-weight="400" font-size="101" transform="matrix(1 0 0 1 2758.41 2055)">amino acids. </text></g><g clip-path="url(#clip19)"><text font-family="Calibri,Calibri_MSFontService,sans-serif" font-weight="400" font-size="101" transform="matrix(1 0 0 1 2533.11 2176)">g</text></g><g clip-path="url(#clip20)"><text font-family="Calibri,Calibri_MSFontService,sans-serif" font-weight="400" font-size="101" transform="matrix(1 0 0 1 2758.41 2176)">(p)</text></g><text font-family="Calibri,Calibri_MSFontService,sans-serif" font-weight="400" font-size="101" transform="matrix(1 0 0 1 2871.85 2176)">ppGpp</text><g clip-path="url(#clip21)"><g clip-path="url(#clip22)"><g clip-path="url(#clip23)"><g clip-path="url(#clip24)"><path d="M1162.02 902.454C1162.02 420.97 1618.17 30.6509 2180.87 30.6509 2743.56 30.6509 3199.72 420.97 3199.72 902.454 3199.72 1383.94 2743.56 1774.26 2180.87 1774.26 1618.17 1774.26 1162.02 1383.94 1162.02 902.454Z" stroke="#000000" stroke-width="16.0044" stroke-miterlimit="8" fill="url(#fill25)" fill-rule="evenodd" transform="matrix(1 0 0 1.00006 -772.863 587.496)"/><path d="M1855.59 704.056 1881.33 675.201 1771.86 577.55 1771.86 577.55 1776.38 572.477 1780.91 567.404 1780.91 567.404 1890.38 665.055 1916.12 636.201 1927.02 645.924 1866.49 713.78Z" stroke="#000000" stroke-width="3.55653" stroke-miterlimit="8" fill-rule="evenodd" transform="matrix(1 0 0 1.00006 -772.863 587.496)"/><path d="M874.519 569.563 950.176 418.248 1101.49 418.248 1177.15 569.563 1101.49 720.877 950.176 720.877Z" stroke="#000000" stroke-width="8.0022" stroke-miterlimit="8" fill="#9DC3E6" fill-rule="evenodd" transform="matrix(1 0 0 1.00006 -772.863 587.496)"/><text font-family="Calibri,Calibri_MSFontService,sans-serif" font-weight="700" font-size="248" transform="matrix(0.775971 0 0 0.776014 214.707 1222)">s</text><path d="M2462.16 400.013C2462.16 316.659 2529.9 249.087 2613.47 249.087 2697.04 249.087 2764.78 316.659 2764.78 400.013 2764.78 483.367 2697.04 550.939 2613.47 550.939 2529.9 550.939 2462.16 483.367 2462.16 400.013Z" stroke="#000000" stroke-width="10.6696" stroke-miterlimit="8" fill="#F4B183" fill-rule="evenodd" transform="matrix(1 0 0 1.00006 -772.863 587.496)"/><path d="M2104.43 969.188C2104.43 885.616 2172.18 817.873 2255.75 817.873 2339.32 817.873 2407.06 885.616 2407.06 969.188 2407.06 1052.76 2339.32 1120.5 2255.75 1120.5 2172.18 1120.5 2104.43 1052.76 2104.43 969.188Z" stroke="#000000" stroke-width="8.0022" stroke-miterlimit="8" fill="#F4B183" fill-rule="evenodd" transform="matrix(1 0 0 1.00006 -772.863 587.496)"/><text font-family="Calibri,Calibri_MSFontService,sans-serif" font-weight="700" font-size="248" transform="matrix(0.775971 0 0 0.776014 1428.93 1621)">R</text><path d="M1423.13 928.837C1423.13 845.265 1490.87 777.523 1574.44 777.523 1658.02 777.523 1725.76 845.265 1725.76 928.837 1725.76 1012.41 1658.02 1080.15 1574.44 1080.15 1490.87 1080.15 1423.13 1012.41 1423.13 928.837Z" stroke="#000000" stroke-width="8.0022" stroke-miterlimit="8" fill="#F4B183" fill-rule="evenodd" transform="matrix(1 0 0 1.00006 -772.863 587.496)"/><path d="M2616.57 1271.82C2616.57 1188.24 2684.32 1120.5 2767.89 1120.5 2851.46 1120.5 2919.2 1188.24 2919.2 1271.82 2919.2 1355.39 2851.46 1423.13 2767.89 1423.13 2684.32 1423.13 2616.57 1355.39 2616.57 1271.82Z" stroke="#000000" stroke-width="8.0022" stroke-miterlimit="8" fill="#F4B183" fill-rule="evenodd" transform="matrix(1 0 0 1.00006 -772.863 587.496)"/><text font-family="Calibri,Calibri_MSFontService,sans-serif" font-weight="700" font-size="248" transform="matrix(0.775971 0 0 0.776014 1932.5 1925)">U</text><path d="M2764.01 742.216C2764.01 658.862 2831.75 591.29 2915.32 591.29 2998.89 591.29 3066.64 658.862 3066.64 742.216 3066.64 825.571 2998.89 893.142 2915.32 893.142 2831.75 893.142 2764.01 825.571 2764.01 742.216Z" stroke="#000000" stroke-width="8.0022" stroke-miterlimit="8" fill="#F4B183" fill-rule="evenodd" transform="matrix(1 0 0 1.00006 -772.863 587.496)"/><text font-family="Calibri,Calibri_MSFontService,sans-serif" font-weight="700" font-size="248" transform="matrix(0.775971 0 0 0.776014 2081.89 1395)">H</text><path d="M1743.61 1423.13 1819.26 1271.82 1970.58 1271.82 2046.24 1423.13 1970.58 1574.44 1819.26 1574.44Z" stroke="#000000" stroke-width="8.0022" stroke-miterlimit="8" fill="#9DC3E6" fill-rule="evenodd" transform="matrix(1 0 0 1.00006 -772.863 587.496)"/><text font-family="Calibri,Calibri_MSFontService,sans-serif" font-weight="700" font-size="248" transform="matrix(0.775971 0 0 0.776014 1070.45 2076)">p</text><path d="M1517.02 429.888 1592.68 278.574 1743.99 278.574 1819.65 429.888 1743.99 581.202 1592.68 581.202Z" stroke="#000000" stroke-width="8.0022" stroke-miterlimit="8" fill="#9DC3E6" fill-rule="evenodd" transform="matrix(1 0 0 1.00006 -772.863 587.496)"/><text font-family="Calibri,Calibri_MSFontService,sans-serif" font-weight="700" font-size="248" transform="matrix(0.775971 0 0 0.776014 849.614 1082)">g</text><path d="M1177.76 561.952 1191.59 562.345 1205.57 563.443 1219.51 565.242 1233.39 567.788 1247.08 570.975 1260.62 574.757 1274.06 579.189 1287.23 584.211 1300.2 589.774 1312.93 595.887 1325.39 602.543 1337.56 609.695 1349.32 617.289 1360.78 625.327 1371.92 633.827 1382.54 642.713 1392.82 651.951 1402.63 661.611 1411.89 671.562 1420.69 681.859 1428.97 692.425 1436.66 703.266 1443.76 714.414 1450.21 725.722 1456.02 737.248 1461.2 749 1465.72 761.13 1470.33 780.588 1454.75 784.274 1450.26 765.301 1450.55 766.254 1446.29 754.809 1446.46 755.237 1441.46 743.888 1441.64 744.268 1436.01 733.113 1436.21 733.476 1429.95 722.516 1430.15 722.847 1423.27 712.032 1423.5 712.365 1416.02 701.841 1416.25 702.143 1408.2 691.862 1408.42 692.129 1399.83 682.09 1400.05 682.339 1391.04 672.639 1391.28 672.891 1381.72 663.482 1381.99 663.733 1371.96 654.712 1372.16 654.898 1361.79 646.217 1362.07 646.44 1351.21 638.147 1351.46 638.338 1340.26 630.481 1340.51 630.652 1329.02 623.232 1329.31 623.408 1317.42 616.424 1317.71 616.584 1305.54 610.085 1305.84 610.239 1293.43 604.274 1293.74 604.415 1281.07 598.983 1281.38 599.107 1268.53 594.208 1268.88 594.331 1255.78 590.015 1256.13 590.122 1242.94 586.436 1243.28 586.523 1229.94 583.419 1230.31 583.496 1216.83 581.022 1217.25 581.088 1203.72 579.342 1204.11 579.383 1190.53 578.316 1190.94 578.337 1177.31 577.949ZM1485.19 771.159 1468.12 822.048 1437.65 777.857Z" transform="matrix(1 0 0 1.00006 -772.863 587.496)"/><path d="M0.120501-8.00127 16.3429-7.75698 32.6378-7.01854 48.8616-5.78946 64.9917-4.16662 80.9788-2.05139 96.8101 0.456061 112.505 3.40799 127.889 6.75022 143.086 10.4388 157.936 14.5204 172.554 18.9006 186.798 23.6815 200.625 28.7497 214.091 34.0771 227.083 39.758 239.624 45.6825 251.698 51.868 263.255 58.3164 274.191 64.9775 284.594 71.8957 294.388 78.9915 303.523 86.3198 311.998 93.8358 319.702 101.541 326.73 109.434 333.442 118.086 337.605 128.35 322.774 134.366 319.026 125.127 320.118 127.023 314.25 119.457 314.596 119.874 307.904 112.357 308.222 112.694 300.85 105.323 301.199 105.651 293.051 98.4241 293.353 98.6794 284.527 91.5987 284.84 91.8369 275.334 84.9502 275.597 85.1333 265.461 78.3917 265.73 78.5632 255.06 72.0643 255.324 72.2181 244.023 65.9134 244.274 66.0473 232.441 59.985 232.671 60.0984 220.352 54.2786 220.564 54.3751 207.81 48.7979 208.072 48.907 194.832 43.6692 195.022 43.7415 181.393 38.7462 181.601 38.8191 167.586 34.1148 167.835 34.1939 153.43 29.8776 153.607 29.9283 138.961 25.9029 139.194 25.9632 124.208 22.3258 124.397 22.3692 109.216 19.0713 109.436 19.1159 93.9654 16.206 94.1928 16.2453 78.5764 13.7719 78.7781 13.8013 63.0165 11.7159 63.2651 11.7449 47.3577 10.1444 47.5542 10.1617 31.5498 8.94927 31.792 8.96394 15.7391 8.23647 15.9809 8.24376-0.120501 8.00127ZM350.203 115.872 343.413 169.121 304.888 131.74Z" transform="matrix(1.83697e-16 1.00006 1 -1.83707e-16 801.969 1668.1)"/><path d="M0.354429-7.99436 10.5538-7.54216 21.0298-6.14189 31.3928-3.8734 41.7369-0.785585 51.8873 3.16179 61.9243 7.8491 71.7725 13.2809 81.4863 19.4025 90.9694 26.2121 100.258 33.6427 109.341 41.673 118.149 50.3302 126.725 59.5046 135.048 69.223 143.063 79.4284 150.764 90.1112 158.162 101.232 165.204 112.787 171.897 124.685 178.194 136.982 184.08 149.596 189.626 162.517 194.68 175.75 199.282 189.209 203.439 202.918 207.103 216.828 210.272 230.893 212.924 245.253 214.779 262.118 198.871 263.869 197.048 247.294 197.132 247.872 194.562 233.954 194.625 234.259 191.521 220.486 191.589 220.764 188 207.137 188.081 207.421 184.007 193.987 184.093 194.253 179.583 181.062 179.679 181.329 174.732 168.38 174.854 168.68 169.422 156.022 169.524 156.25 163.753 143.883 163.882 144.147 157.723 132.119 157.87 132.395 151.324 120.755 151.465 120.996 144.578 109.697 144.749 109.964 137.522 99.1 137.694 99.3483 130.177 88.9208 130.375 89.1839 122.566 79.2421 122.782 79.5044 114.682 70.0473 114.914 70.3066 106.573 61.3829 106.809 61.6252 98.2736 53.235 98.5832 53.5238 89.8047 45.764 90.1057 46.0172 81.134 38.8394 81.4653 39.0907 72.3476 32.5434 72.7486 32.8135 63.4369 26.9452 63.8387 27.1823 54.4301 21.993 54.9088 22.2365 45.3546 17.7746 45.8403 17.9822 36.2377 14.2478 36.8492 14.4576 27.101 11.5477 27.6787 11.697 17.9306 9.56307 18.5816 9.6776 8.78492 8.36815 9.49067 8.43085-0.354429 7.99436ZM230.195 253.287 209.701 302.901 182.306 256.737Z" transform="matrix(1 0 0 -1.00006 1273.76 2011.37)"/><path d="M2355.22 861.149 2355.42 854.018 2355.99 846.693 2356.9 839.414 2358.19 832.19 2359.82 825.043 2361.75 817.966 2364 810.99 2366.57 804.038 2372.48 790.745 2379.49 777.957 2387.46 765.823 2396.3 754.492 2405.92 744.06 2416.17 734.666 2421.66 730.319 2427.21 726.264 2432.92 722.556 2438.7 719.15 2444.67 716.085 2450.7 713.383 2456.86 711.034 2463.04 709.096 2469.37 707.513 2475.79 706.4 2482.18 705.714 2488.31 705.461 2494.17 705.218 2493.58 705.264 2499.45 704.585 2498.81 704.685 2504.69 703.521 2504.16 703.643 2509.93 702.091 2509.4 702.253 2515.18 700.264 2514.71 700.439 2520.44 698.063 2519.93 698.296 2525.55 695.483 2525.24 695.649 2530.82 692.545 2530.34 692.833 2535.77 689.293 2535.5 689.477 2540.89 685.646 2540.54 685.906 2545.77 681.735 2545.49 681.975 2550.58 677.513 2550.31 677.763 2555.3 672.961 2555.08 673.185 2559.93 668.141 2559.57 668.54 2568.74 657.628 2568.35 658.129 2576.79 646.295 2576.44 646.828 2584.05 634.122 2583.76 634.656 2590.45 621.271 2590.19 621.847 2595.87 607.83 2595.71 608.273 2598.13 601.095 2597.86 602.077 2600.43 589.343 2616.12 592.501 2613.45 605.734 2610.79 613.618 2604.91 628.145 2597.94 642.086 2590 655.328 2581.2 667.679 2571.65 679.04 2566.51 684.391 2561.27 689.43 2555.89 694.137 2550.34 698.559 2544.65 702.611 2538.84 706.393 2532.87 709.719 2526.83 712.736 2520.62 715.316 2514.36 717.474 2508.06 719.167 2501.61 720.446 2495.13 721.197 2488.97 721.451 2483.1 721.693 2483.62 721.654 2477.75 722.285 2478.26 722.213 2472.4 723.231 2472.97 723.11 2467.15 724.565 2467.6 724.438 2461.88 726.232 2462.34 726.074 2456.62 728.256 2457.04 728.081 2451.42 730.603 2451.8 730.421 2446.22 733.282 2446.63 733.057 2441.2 736.257 2441.48 736.077 2436.1 739.569 2436.47 739.314 2431.23 743.145 2431.48 742.958 2426.34 747.032 2426.77 746.662 2416.98 755.633 2417.45 755.156 2408.29 765.099 2408.71 764.597 2400.28 775.412 2400.65 774.883 2393.04 786.477 2393.37 785.927 2386.68 798.148 2386.97 797.558 2381.3 810.308 2381.49 809.834 2379.06 816.383 2379.18 816.05 2377.05 822.692 2377.15 822.358 2375.3 829.102 2375.39 828.776 2373.83 835.565 2373.91 835.177 2372.7 842.014 2372.76 841.626 2371.89 848.509 2371.93 848.121 2371.39 855.05 2371.41 854.662 2371.22 861.599ZM2583.36 595.388 2614.03 551.327 2630.88 602.295Z" transform="matrix(1 0 0 1.00006 -772.863 587.496)"/><path d="M0.338414-7.99506 9.79881-7.5946 19.5655-6.45775 29.3223-4.54767 38.9247-1.92884 48.445 1.34698 57.7919 5.27979 67.0326 9.8494 76.1026 14.9671 85.0154 20.6895 93.7287 26.9852 102.223 33.7209 110.515 41.0065 118.532 48.7234 126.338 56.9303 133.829 65.5201 141.064 74.5007 147.994 83.8739 154.622 93.5922 160.901 103.657 166.822 114.007 172.395 124.656 177.578 135.57 182.303 146.71 186.681 158.054 190.571 169.624 194.004 181.367 197.039 193.405 200.135 212.999 184.326 215.496 181.287 196.26 181.432 196.967 178.522 185.424 178.601 185.714 175.255 174.268 175.35 174.573 171.567 163.322 171.687 163.653 167.419 152.595 167.517 152.838 162.91 141.975 163.049 142.283 158.005 131.662 158.144 131.94 152.712 121.561 152.855 121.824 147.085 111.737 147.24 111.998 141.13 102.202 141.308 102.475 134.858 93.018 135.034 93.2663 128.294 84.1486 128.496 84.4117 121.464 75.6818 121.664 75.9214 114.39 67.5797 114.623 67.8354 107.057 59.8817 107.306 60.1319 99.5462 52.6632 99.8131 52.9087 91.8113 45.8765 92.1217 46.1358 83.9251 39.6371 84.2107 39.853 75.8204 33.7907 76.1836 34.0383 67.6479 28.558 68.0389 28.7935 59.3577 23.8952 59.743 24.0989 50.9163 19.7341 51.36 19.9369 42.4848 16.2025 42.9847 16.3935 33.964 13.2896 34.4621 13.443 25.3929 10.9696 25.9611 11.1025 16.795 9.30808 17.4071 9.40345 8.24097 8.33649 8.82775 8.38305-0.338414 7.99506ZM215.384 204.036 195.97 254.083 167.581 208.524Z" transform="matrix(1.83697e-16 1.00006 1 -1.83707e-16 1590.36 1664.22)"/><path d="M0.104458-8.0015 18.7631-7.75793 37.4679-7.12139 56.1262-6.044 74.6302-4.57543 93.0412-2.71473 111.202-0.462982 129.224 2.13254 146.901 5.11959 164.328 8.39926 181.476 12.0249 198.184 15.9446 214.561 20.1616 230.455 24.6745 245.908 29.433 260.906 34.449 275.317 39.7607 289.151 45.2254 302.382 50.9523 314.991 56.8858 326.935 63.0317 338.172 69.346 348.679 75.8507 358.36 82.5718 367.297 89.388 375.88 96.8846 385.421 110.39 372.349 119.624 363.36 106.899 364.632 108.31 356.969 101.617 357.38 101.952 348.796 95.4056 349.085 95.6159 339.725 89.1171 340.076 89.3476 329.892 83.0428 330.183 83.2151 319.223 77.0561 319.482 77.1954 307.794 71.1817 308.048 71.3066 295.681 65.4868 295.91 65.5901 282.912 59.9643 283.151 60.0631 269.523 54.6798 269.695 54.7456 255.485 49.5078 255.715 49.5885 240.923 44.6417 241.106 44.7004 225.829 39.9961 225.998 40.0462 210.285 35.5843 210.475 35.6359 194.277 31.4651 194.444 31.5063 177.907 27.6264 178.079 27.6649 161.105 24.076 161.28 24.111 144.015 20.8617 144.161 20.8879 126.653 17.9295 126.846 17.9596 108.998 15.3892 109.155 15.4101 91.1618 13.1792 91.3419 13.1994 73.1066 11.3565 73.2781 11.372 54.9458 9.91706 55.1176 9.92886 36.6398 8.8619 36.829 8.87051 18.3027 8.24004 18.4704 8.24399-0.104458 8.0015ZM397.039 97.3789 396.251 151.054 353.784 118.218Z" transform="matrix(1 0 0 -1.00006 1640.02 1587.9)"/><path d="M2248.04 818.494 2247.8 810.199 2247.83 810.711 2247.06 802.424 2247.11 802.843 2245.9 794.648 2245.98 795.099 2244.28 786.904 2244.37 787.308 2242.24 779.16 2242.36 779.571 2239.79 771.518 2239.91 771.874 2236.95 763.92 2237.12 764.321 2233.72 756.513 2233.86 756.81 2230.12 749.099 2230.3 749.44 2226.18 741.874 2226.36 742.202 2221.85 734.782 2222.02 735.054 2217.22 727.827 2217.43 728.121 2212.29 721.09 2212.5 721.366 2207.07 714.576 2207.37 714.938 2195.69 701.99 2196.04 702.352 2189.78 696.241 2190.06 696.501 2183.56 690.729 2183.78 690.915 2177.09 685.386 2177.36 685.603 2170.42 680.365 2170.72 680.582 2163.64 675.732 2163.93 675.923 2156.61 671.364 2156.89 671.527 2149.46 667.308 2149.86 667.518 2142.25 663.735 2142.54 663.875 2134.84 660.432 2135.18 660.577 2127.37 657.522 2127.81 657.68 2119.91 655.11 2120.28 655.22 2112.28 653.037 2112.73 653.147 2104.68 651.449 2105.11 651.528 2096.96 650.267 2097.42 650.324 2089.32 649.548 2089.84 649.581 2081.65 649.339 2082.12 649.339 2073.98 649.581 2074.4 649.557 2066.26 650.236 2066.72 650.183 2058.57 651.347 2059.01 651.274 2050.95 652.875 2051.33 652.792 2043.32 654.781 2043.74 654.665 2035.83 657.09 2036.19 656.973 2028.33 659.786 2028.7 659.643 2020.99 662.844 2021.31 662.701 2013.75 666.242 2014.04 666.094 2006.58 669.974 2006.9 669.796 1999.62 674.014 1999.94 673.82 1992.86 678.379 1993.08 678.231 1986.14 683.032 1986.47 682.798 1979.77 687.939 1980.13 687.651 1967.37 698.66 1967.87 698.191 1956.14 710.219 1956.47 709.854 1951.04 716.158 1951.27 715.87 1946.18 722.369 1946.36 722.129 1941.51 728.822 1941.75 728.478 1937.29 735.364 1937.48 735.06 1933.35 742.092 1933.54 741.758 1929.8 748.888 1929.96 748.559 1926.57 755.834 1926.73 755.471 1923.72 762.843 1923.9 762.381 1921.37 769.85 1921.49 769.475 1919.36 776.995 1919.46 776.545 1917.77 784.165 1917.87 783.676 1916.65 791.296 1916.71 790.838 1915.93 798.505 1915.97 797.946 1915.72 805.66 1915.72 805.109 1916.02 812.822 1915.98 812.263 1916.8 819.93 1916.72 819.332 1918.12 826.944 1918.02 826.471 1919.91 834.083 1919.76 833.571 1922.19 841.137 1922.03 840.671 1924.94 848.144 1924.76 847.74 1928.11 855.112 1927.91 854.685 1931.73 861.964 1931.52 861.584 1935.79 868.715 1935.6 868.405 1940.25 875.435 1940 875.078 1945.09 881.914 1944.89 881.65 1950.32 888.339 1950.08 888.068 1955.9 894.617 1955.65 894.338 1961.81 900.646 1961.58 900.429 1968.03 906.536 1967.77 906.295 1974.56 912.162 1974.19 911.867 1988.6 922.924 1988.2 922.645 1995.82 927.782 1995.53 927.596 2003.34 932.399 2003.09 932.251 2011.15 936.814 2010.84 936.651 2019.09 940.872 2018.8 940.733 2027.19 944.613 2026.88 944.473 2035.47 948.019 2035.17 947.903 2043.9 951.1 2043.57 950.983 2052.44 953.8 2051.56 953.575 2066.67 956.531 2063.6 972.237 2048.04 969.195 2038.56 966.192 2029.51 962.871 2020.63 959.209 2011.94 955.189 2003.4 950.82 1995.08 946.11 1987.01 941.144 1979.04 935.767 1964.26 924.422 1957.16 918.284 1950.46 911.936 1944.07 905.387 1938 898.567 1932.35 891.606 1927.03 884.459 1922.15 877.088 1917.68 869.615 1913.64 861.941 1910.1 854.158 1907.03 846.25 1904.44 838.204 1902.42 830.087 1900.92 821.939 1900.03 813.699 1899.72 805.434 1899.98 797.17 1900.81 788.999 1902.1 780.922 1903.9 772.842 1906.15 764.916 1908.81 757.027 1911.98 749.244 1915.54 741.624 1919.45 734.163 1923.76 726.812 1928.44 719.6 1933.49 712.617 1938.79 705.853 1944.51 699.219 1956.66 686.768 1969.84 675.386 1976.87 669.986 1984.08 664.995 1991.44 660.264 1999.03 655.858 2006.81 651.816 2014.68 648.13 2022.75 644.785 2030.96 641.843 2039.25 639.301 2047.65 637.214 2056.1 635.534 2064.7 634.307 2073.29 633.59 2081.88 633.334 2090.58 633.592 2099.18 634.415 2107.77 635.744 2116.26 637.535 2124.67 639.83 2132.99 642.532 2141.19 645.741 2149.22 649.329 2157.18 653.284 2164.94 657.693 2172.54 662.428 2179.92 667.482 2187.14 672.937 2194.08 678.667 2200.83 684.66 2207.4 691.079 2219.42 704.392 2225.1 711.504 2230.46 718.821 2235.45 726.331 2240.13 734.051 2244.44 741.951 2248.33 749.982 2251.88 758.138 2254.98 766.471 2257.67 774.902 2259.91 783.459 2261.7 792.08 2262.97 800.717 2263.79 809.477 2264.04 818.028ZM2060.26 939.553 2104.82 969.482 2054.14 987.175Z" transform="matrix(1 0 0 1.00006 -772.863 587.496)"/><path d="M0.833765-7.95867 6.77121-7.33663 13.2727-5.21115 19.4555-1.94136 25.3646 2.43362 30.9303 7.67192 36.3387 13.8226 41.5404 20.7928 46.5986 28.6101 51.5554 37.2088 56.3219 46.5409 61.0103 56.6161 65.5362 67.4583 69.8861 78.9263 74.1203 90.9888 78.2567 103.694 82.1908 117.022 85.9706 130.864 89.5494 145.227 92.9768 160.063 96.2103 175.397 99.1931 191.096 102.029 207.176 104.621 223.611 106.971 240.41 110.925 274.624 113.902 309.771 114.931 327.588 115.712 345.471 116.152 363.45 116.348 381.503 115.811 417.416 114.249 453.097 111.71 488.195 108.247 522.439 106.195 539.202 103.997 555.612 101.554 571.689 98.9642 587.372 96.1769 602.677 93.2399 617.51 90.1065 631.854 86.8746 645.664 83.4867 658.971 79.9475 671.653 76.3025 683.72 72.4996 695.178 68.591 705.964 64.605 716.029 60.1736 725.959 50.1047 739.903 37.1294 730.534 46.7148 717.259 45.8949 718.683 49.9202 709.663 49.7878 709.977 53.6677 700.18 53.5843 700.401 57.4156 689.828 57.3442 690.033 61.0786 678.782 61.013 678.988 64.6019 667.107 64.5546 667.269 68.0464 654.756 67.9993 654.933 71.3457 641.791 71.3089 641.941 74.5097 628.265 74.4835 628.38 77.5874 614.171 77.5555 614.324 80.4651 599.629 80.4426 599.749 83.2066 584.57 83.1841 584.7 85.7549 569.132 85.7386 569.234 88.1635 553.277 88.1433 553.418 90.3261 537.122 90.3145 537.212 92.3514 520.577 92.3328 520.744 95.7758 486.698 95.7564 486.926 98.2783 452.057 98.2651 452.283 99.817 416.831 99.81 417.062 100.344 381.367 100.343 381.574 100.149 363.677 100.151 363.787 99.7146 345.939 99.72 346.093 98.944 328.343 98.9495 328.454 97.9314 310.8 97.9461 311.015 94.9882 276.097 95.0122 276.34 91.0842 242.343 91.1083 242.533 88.7804 225.898 88.8006 226.036 86.2305 209.74 86.2546 209.883 83.4417 193.927 83.4603 194.032 80.5023 178.464 80.5334 178.621 77.3328 163.441 77.3659 163.591 73.9711 148.896 74.0031 149.03 70.4627 134.82 70.508 134.993 66.7736 121.316 66.8185 121.474 62.9386 108.331 63.0043 108.543 58.9304 96.0303 58.989 96.2033 54.8182 84.3217 54.8866 84.5087 50.6188 73.2574 50.7162 73.5019 46.3028 62.9293 46.4324 63.2229 41.8736 53.4263 42.0022 53.69 37.3949 44.6693 37.5886 45.0259 32.8358 36.7812 33.0501 37.132 28.2488 29.7118 28.5539 30.1505 23.7041 23.6517 24.1079 24.1499 19.1611 18.5241 19.6861 19.0672 14.7393 14.4114 15.4621 15.0155 10.4183 11.2811 11.4389 11.9237 6.39512 9.25632 7.64953 9.78848 2.60572 8.13955 4.25854 8.49215-0.833765 7.95867ZM66.0267 746.973 14.7809 762.956 32.742 712.369Z" transform="matrix(-1.83697e-16 -1.00006 -1 1.83707e-16 1734.09 881.254)"/><text font-family="Calibri,Calibri_MSFontService,sans-serif" font-weight="700" font-size="248" transform="matrix(0.775971 0 0 0.776014 1716.51 1053)">Rel</text><path d="M0.532298 7.98451-4.56001 8.32399-3.50844 8.18339-8.55229 9.20185-7.64953 8.96402-12.6933 10.613-11.9167 10.3135-16.9121 12.5444-16.1978 12.1815-21.1931 15.0429-20.5686 14.6457-25.4669 18.089-24.9883 17.725-29.8866 21.7504-29.4883 21.4003-34.2896 25.9106-33.9166 25.5363-38.6209 30.5801-38.3254 30.2449-42.9327 35.7737-42.7032 35.485-47.262 41.4988-47.019 41.1603-51.4324 47.659-51.2718 47.4131-55.5882 54.2999-55.4265 54.0303-59.5974 61.305-59.4553 61.0463-63.4806 68.709-63.3562 68.4617-67.236 76.5124-67.134 76.2922-70.8683 84.6825-70.7694 84.4505-74.3098 93.1312-74.2301 92.9279-77.625 101.949-77.5467 101.731-80.7475 111.043-80.6482 110.734-86.4199 130.036-86.3105 129.632-91.2084 149.807-91.1246 149.419-95.1014 170.273-95.0332 169.855-97.943 191.194-97.9042 190.863-98.9231 201.678-98.9076 201.496-99.6835 212.407-99.6719 212.195-100.157 223.107-100.149 222.858-100.295 233.819-100.296 233.571-100.102 244.532-100.116 244.176-99.4368 255.089-99.4562 254.842-98.4373 265.754-98.4746 265.431-97.0196 276.246-97.0639 275.956-95.2209 286.675-95.2675 286.427-93.0847 297.097-93.1444 296.827-90.6225 307.303-90.6978 307.016-87.7879 317.394-87.8585 317.156-84.6576 327.34-84.7492 327.066-81.2092 337.057-81.3039 336.802-77.4727 346.551-77.5594 346.339-73.4855 355.894-73.6223 355.59-69.209 364.853-69.3067 364.655-64.6994 373.676-64.8565 373.383-59.9582 382.065-60.1042 381.816-54.9634 390.206-55.1161 389.967-49.7813 398.018-49.9625 397.756-44.4337 405.418-44.6178 405.173-38.895 412.497-39.1306 412.209-33.2138 419.096-33.4743 418.807-27.3635 425.258-27.6049 425.013-21.3971 431.027-21.7118 430.738-15.3586 436.267-15.7053 435.982-9.20658 441.025-9.59604 440.741-3.00025 445.252-4.7073 444.365 5.11081 448.047-0.509024 463.032-11.2344 459.01-18.8289 453.816-25.6955 448.487-32.3794 442.671-38.864 436.389-45.2265 429.673-51.3912 422.498-57.3228 414.907-63.0344 406.991-68.5357 398.689-73.826 390.055-78.8767 381.103-83.6101 371.837-88.1425 362.324-92.3258 352.511-96.2491 342.531-99.883 332.276-103.165 321.835-106.148 311.193-108.737 300.439-110.972 289.511-112.861 278.525-114.357 267.403-115.402 256.206-116.1 244.993-116.299 233.73-116.15 222.521-115.655 211.378-114.865 200.269-113.823 189.196-110.862 167.482-106.808 146.225-101.814 125.653-95.9356 105.994-92.6447 96.4198-89.1707 87.1889-85.5415 78.29-81.7058 69.6735-77.7135 61.3887-73.5551 53.4728-69.2326 45.9336-64.7549 38.7892-60.1419 31.9965-55.3457 25.6697-50.4772 19.8275-45.4401 14.4268-40.2527 9.55391-34.9171 5.1691-29.4695 1.33964-23.8046-1.90527-18.0626-4.46968-12.1783-6.39339-6.15506-7.60962-0.532298-7.98451ZM1.7786 430.239 40.5117 467.406-12.4612 476.093Z" transform="matrix(-6.12323e-17 -1.00006 -1 6.12357e-17 1376.46 1663.6)"/><text font-family="Calibri,Calibri_MSFontService,sans-serif" font-weight="700" font-size="248" transform="matrix(0.775971 0 0 0.776014 706.347 1582)">M<tspan font-size="248" x="217" y="0">’</tspan></text></g></g></g></g><rect x="170" y="1371" width="343" height="157" stroke="#000000" stroke-width="10.3125" stroke-miterlimit="8" fill="#E2F0D9"/><text font-family="Calibri,Calibri_MSFontService,sans-serif" font-weight="400" font-size="92" transform="matrix(1 0 0 1 214.398 1480)">uptake</text><rect x="232" y="1792" width="543" height="157" stroke="#000000" stroke-width="10.3125" stroke-miterlimit="8" fill="#E2F0D9"/><text font-family="Calibri,Calibri_MSFontService,sans-serif" font-weight="400" font-size="92" transform="matrix(1 0 0 1 283.106 1902)">metabolism</text><rect x="385" y="610" width="462" height="223" stroke="#000000" stroke-width="10.3125" stroke-miterlimit="8" fill="#E2F0D9"/><text font-family="Calibri,Calibri_MSFontService,sans-serif" font-weight="400" font-size="92" transform="matrix(1 0 0 1 452.288 697)">Negative <tspan font-size="92" x="-5.43124" y="110">feedback</tspan></text></g></svg>